<svg xmlns="http://www.w3.org/2000/svg" xmlns:xlink="http://www.w3.org/1999/xlink" width="40.332" height="40.332" viewBox="0 0 40.332 40.332"><defs><linearGradient id="a" y1="0.5" x2="1" y2="0.5" gradientUnits="objectBoundingBox"><stop offset="0" stop-color="#6286fd"/><stop offset="1" stop-color="#766dfe"/></linearGradient></defs><path d="M37.406,24.149a1.575,1.575,0,1,0-2.921,1.181l1.855,4.59-5.511-2.429a1.574,1.574,0,0,0-1.254-.008,15.194,15.194,0,0,1-6,1.211c-8.435,0-14.1-6.6-14.1-12.772,0-7.042,6.326-12.772,14.1-12.772s14.1,5.73,14.1,12.772a12.825,12.825,0,0,1-.14,1.8,1.575,1.575,0,1,0,3.116.465,15.912,15.912,0,0,0,.175-2.27,15.227,15.227,0,0,0-5.1-11.307A17.9,17.9,0,0,0,23.579,0,17.9,17.9,0,0,0,11.431,4.615,15.312,15.312,0,0,0,6.39,14.567,12.736,12.736,0,0,0,.5,25.17a12.222,12.222,0,0,0,2.416,7.3l-2.3,5.692a1.575,1.575,0,0,0,2.1,2.032l6.635-2.925a15,15,0,0,0,5.254.936c.039,0,.078,0,.117-.006a14.913,14.913,0,0,0,7.412-2.009,13.562,13.562,0,0,0,4.766-4.641,18.149,18.149,0,0,0,3.273-.91l8.452,3.726a1.575,1.575,0,0,0,2.1-2.032ZM14.6,35.054c-.022,0-.042,0-.064,0a11.814,11.814,0,0,1-4.6-.941,1.576,1.576,0,0,0-1.254.007L4.989,35.749l1.19-2.944a1.576,1.576,0,0,0-.262-1.613A9.2,9.2,0,0,1,3.649,25.17a9.373,9.373,0,0,1,2.912-6.712,15.9,15.9,0,0,0,4.661,8.517,17.611,17.611,0,0,0,11.462,4.85A11.58,11.58,0,0,1,14.6,35.054ZM25.863,17.409a1.575,1.575,0,0,1,0,3.151H16.41a1.575,1.575,0,0,1,0-3.151Zm4.726-3.151H16.41a1.575,1.575,0,0,1,0-3.151H30.59a1.575,1.575,0,1,1,0,3.151Zm0,0" transform="translate(-0.498 0)" fill="url(#a)"/></svg>