<svg xmlns="http://www.w3.org/2000/svg" xmlns:xlink="http://www.w3.org/1999/xlink" width="43.304" height="43.304" viewBox="0 0 43.304 43.304"><defs><linearGradient id="a" x1="0.5" x2="0.5" y2="1" gradientUnits="objectBoundingBox"><stop offset="0" stop-color="#766efe"/><stop offset="1" stop-color="#6087fd"/></linearGradient></defs><path d="M39.921,3.975a1.692,1.692,0,1,1,1.692,1.692A1.692,1.692,0,0,1,39.921,3.975ZM8.373,3.383A1.692,1.692,0,1,0,6.682,1.692,1.692,1.692,0,0,0,8.373,3.383Zm-4.99,6.851A1.692,1.692,0,1,0,1.692,8.542,1.692,1.692,0,0,0,3.383,10.234Zm36.349,3.053q.02-.257.02-.516a6.691,6.691,0,0,0-6.005-6.648A7.951,7.951,0,0,0,20.984,1.789,7.994,7.994,0,0,0,18.842,4.51a6.944,6.944,0,0,0-8.185,6.824c0,.016,0,.031,0,.047a6.405,6.405,0,0,0-4.643,5.079A8.363,8.363,0,0,1,9.3,17.538a3.042,3.042,0,0,1,3.044-2.99,2.9,2.9,0,0,1,2.96,2.96h3.383a6.28,6.28,0,0,0-1.878-4.5A6.348,6.348,0,0,0,14.041,11.4c0-.022,0-.045,0-.067a3.556,3.556,0,0,1,3.552-3.552,3.515,3.515,0,0,1,1.557.359l1.939.948.457-2.11a4.564,4.564,0,0,1,8.838-.322,6.69,6.69,0,0,0-3.995,6.116h3.383a3.226,3.226,0,0,1,3.3-3.3,3.3,3.3,0,0,1,3.3,3.3,6.483,6.483,0,0,1-.8,2.892l1.888.384a3.088,3.088,0,0,1,.338,5.961A23.305,23.305,0,0,1,41.4,23.662a6.476,6.476,0,0,0-1.669-10.374Zm-11.314,4.9a1.692,1.692,0,1,0-1.692,1.692A1.692,1.692,0,0,0,28.418,18.184Zm1.712,5.84-11.953,0A4.74,4.74,0,0,0,14,26.537L8.629,21.244A5.075,5.075,0,0,0,1.52,28.488l12.554,12.32a8.667,8.667,0,0,0,6.106,2.5H43.3V39.921H20.181a5.3,5.3,0,0,1-3.736-1.527L4,26.182a1.69,1.69,0,1,1,2.369-2.41s8.863,8.715,9.145,8.907a6.506,6.506,0,0,0,2.28,1.028c.521.1,9.519,1.051,13.363,1.457L31.51,31.8c-4.935-.521-12.46-1.326-13.118-1.422-1.477-.353-1.569-1.285-1.569-1.614a1.355,1.355,0,0,1,1.354-1.353l11.912,0h0a16.589,16.589,0,0,1,9.5,3.112L43.3,33.178v-4.16l-1.747-1.25A19.956,19.956,0,0,0,30.13,24.024Z" transform="translate(0)" fill="url(#a)"/></svg>