<svg xmlns="http://www.w3.org/2000/svg" width="33.176" height="51.838" viewBox="0 0 33.176 51.838"><g transform="translate(0)"><g transform="translate(0 24.943)"><path d="M111.512,211.238a1.83,1.83,0,1,0-3.659,0,12.929,12.929,0,0,1-25.858,0,1.83,1.83,0,1,0-3.659,0,16.586,16.586,0,0,0,14.759,16.527v4.879H86.447a1.83,1.83,0,0,0,0,3.659H103.4a1.83,1.83,0,1,0,0-3.659H96.754v-4.879A16.586,16.586,0,0,0,111.512,211.238Z" transform="translate(-78.336 -209.408)" fill="#fff"/></g><g transform="translate(6.404)"><g transform="translate(0)"><path d="M142.281,0A10.2,10.2,0,0,0,132.1,10.185V26.712a10.185,10.185,0,1,0,20.369.061V10.185A10.2,10.2,0,0,0,142.281,0Z" transform="translate(-132.096)" fill="#fff"/></g></g></g></svg>