<svg xmlns="http://www.w3.org/2000/svg" width="52.767" height="82.449" viewBox="0 0 52.767 82.449"><g transform="translate(0 39.672)"><path d="M131.1,212.318a2.91,2.91,0,1,0-5.82,0,20.564,20.564,0,0,1-41.127,0,2.91,2.91,0,1,0-5.82,0A26.38,26.38,0,0,0,101.81,238.6v7.76H91.237a2.91,2.91,0,1,0,0,5.82H118.2a2.91,2.91,0,1,0,0-5.82H107.63V238.6A26.38,26.38,0,0,0,131.1,212.318Z" transform="translate(-78.336 -209.408)" fill="#fff"/></g><g transform="translate(10.185)"><g transform="translate(0)"><path d="M148.295,0a16.228,16.228,0,0,0-16.2,16.2V42.485a16.2,16.2,0,1,0,32.4.1V16.2A16.228,16.228,0,0,0,148.295,0Z" transform="translate(-132.096)" fill="#fff"/></g></g></svg>