<svg xmlns="http://www.w3.org/2000/svg" xmlns:xlink="http://www.w3.org/1999/xlink" width="42.749" height="42.749" viewBox="0 0 42.749 42.749"><defs><linearGradient id="a" x1="0.5" x2="0.5" y2="1" gradientUnits="objectBoundingBox"><stop offset="0" stop-color="#6186fd"/><stop offset="1" stop-color="#766efe"/></linearGradient></defs><g transform="translate(21.374 11.4)"><path d="M241.425,128a1.425,1.425,0,1,0,0,2.85,5.706,5.706,0,0,1,5.7,5.7,1.425,1.425,0,0,0,2.85,0A8.56,8.56,0,0,0,241.425,128Z" transform="translate(-240 -128)" fill="url(#a)"/></g><g transform="translate(21.374 5.7)"><path d="M241.425,64a1.425,1.425,0,1,0,0,2.85,11.411,11.411,0,0,1,11.4,11.4,1.425,1.425,0,1,0,2.85,0A14.266,14.266,0,0,0,241.425,64Z" transform="translate(-240 -64)" fill="url(#a)"/></g><g transform="translate(21.374)"><path d="M241.425,0a1.425,1.425,0,1,0,0,2.85,17.117,17.117,0,0,1,17.1,17.1,1.425,1.425,0,1,0,2.85,0A19.973,19.973,0,0,0,241.425,0Z" transform="translate(-240)" fill="url(#a)"/></g><g transform="translate(0 2.85)"><path d="M38.474,60.5a26.45,26.45,0,0,1-11.713-2.676,1.4,1.4,0,0,0-1.092-.066,1.437,1.437,0,0,0-.818.727l-2.24,4.637A35.841,35.841,0,0,1,8.783,49.293l4.634-2.246a1.423,1.423,0,0,0,.658-1.909A26.451,26.451,0,0,1,11.4,33.425,1.425,1.425,0,0,0,9.975,32H1.425A1.425,1.425,0,0,0,0,33.425,38.517,38.517,0,0,0,38.474,71.9,1.425,1.425,0,0,0,39.9,70.474v-8.55A1.425,1.425,0,0,0,38.474,60.5Z" transform="translate(0 -32)" fill="url(#a)"/></g></svg>